<svg xmlns="http://www.w3.org/2000/svg" viewBox="0 0 900 1200" role="img" aria-label="Bebidas">
  <defs>
    <linearGradient id="bg" x1="0" x2="1" y1="0" y2="1">
      <stop offset="0" stop-color="#fff6e8"/>
      <stop offset="1" stop-color="#d9c494"/>
    </linearGradient>
    <linearGradient id="glass" x1="0" x2="0" y1="0" y2="1">
      <stop offset="0" stop-color="#fffdf7" stop-opacity=".96"/>
      <stop offset="1" stop-color="#fff2d8" stop-opacity=".82"/>
    </linearGradient>
    <linearGradient id="drink" x1="0" x2="0" y1="0" y2="1">
      <stop offset="0" stop-color="#f2c774"/>
      <stop offset=".56" stop-color="#d98745"/>
      <stop offset="1" stop-color="#b94b33"/>
    </linearGradient>
    <filter id="shadow" x="-20%" y="-20%" width="140%" height="140%">
      <feDropShadow dx="0" dy="30" stdDeviation="28" flood-color="#4a3724" flood-opacity=".22"/>
    </filter>
  </defs>
  <rect width="900" height="1200" fill="url(#bg)"/>
  <circle cx="185" cy="232" r="132" fill="#fffaf1" opacity=".5"/>
  <circle cx="724" cy="858" r="174" fill="#6d7f5f" opacity=".16"/>
  <g filter="url(#shadow)">
    <path d="M314 238h246c34 0 61 29 56 63l-70 565c-5 42-41 74-84 74h-50c-43 0-79-32-84-74l-70-565c-5-34 22-63 56-63Z" fill="url(#glass)"/>
    <path d="M290 470h295l-47 377c-4 34-33 60-68 60h-67c-35 0-64-26-68-60l-45-377Z" fill="url(#drink)"/>
    <path d="M304 468c62 28 111 30 164 7 42-18 80-17 111-4l-10 78c-36-18-75-19-117 0-49 22-96 18-137-4l-11-77Z" fill="#fff2b8" opacity=".62"/>
    <path d="M325 274h229c19 0 34 15 34 34s-15 34-34 34H325c-19 0-34-15-34-34s15-34 34-34Z" fill="#fffaf2"/>
    <path d="M396 284 344 126" fill="none" stroke="#6d7f5f" stroke-width="18" stroke-linecap="round"/>
    <path d="M509 284 646 126" fill="none" stroke="#6d7f5f" stroke-width="18" stroke-linecap="round"/>
    <circle cx="376" cy="602" r="42" fill="#ffe08b"/>
    <circle cx="500" cy="674" r="34" fill="#fff0a9"/>
    <path d="M638 158c-39 0-68-17-88-51 50-13 84 2 104 44l-16 7Z" fill="#7f986b"/>
  </g>
  <path d="M242 1014c117 50 285 54 421 4" fill="none" stroke="#c9563a" stroke-width="12" stroke-linecap="round" opacity=".22"/>
</svg>
