<svg xmlns="http://www.w3.org/2000/svg" viewBox="0 0 900 1200" role="img" aria-label="Cóctel">
  <defs>
    <linearGradient id="bg" x1="0" x2="0" y1="0" y2="1">
      <stop offset="0" stop-color="#fff0d2"/>
      <stop offset="1" stop-color="#e8b36a"/>
    </linearGradient>
    <linearGradient id="drink" x1="0" x2="1" y1="0" y2="1">
      <stop offset="0" stop-color="#f9d36d"/>
      <stop offset=".55" stop-color="#d86c4a"/>
      <stop offset="1" stop-color="#9f3f2d"/>
    </linearGradient>
    <linearGradient id="lime" x1="0" x2="1" y1="0" y2="1">
      <stop offset="0" stop-color="#d8efa4"/>
      <stop offset="1" stop-color="#6d7f5f"/>
    </linearGradient>
  </defs>
  <rect width="900" height="1200" fill="url(#bg)"/>
  <circle cx="720" cy="178" r="88" fill="#fff7df" opacity=".82"/>
  <path d="M210 318h480L520 575v365l124 96H256l124-96V575z" fill="#fffaf2" opacity=".88"/>
  <path d="M279 362h342L494 552H406z" fill="url(#drink)"/>
  <path d="M405 575h90v352h-90z" fill="#fffaf2" opacity=".82"/>
  <path d="M328 1002h244" stroke="#261f1a" stroke-width="20" stroke-linecap="round" opacity=".7"/>
  <path d="M278 365h344" stroke="#261f1a" stroke-width="20" stroke-linecap="round" opacity=".72"/>
  <circle cx="620" cy="322" r="86" fill="url(#lime)"/>
  <circle cx="620" cy="322" r="47" fill="#fff7ec" opacity=".62"/>
  <path d="M620 238v168M536 322h168M562 264l116 116M678 264 562 380" stroke="#fff7ec" stroke-width="8" opacity=".72"/>
  <path d="M524 196 434 512" stroke="#261f1a" stroke-width="13" stroke-linecap="round" opacity=".7"/>
  <circle cx="374" cy="417" r="18" fill="#fff7ec" opacity=".45"/>
  <circle cx="472" cy="430" r="15" fill="#fff7ec" opacity=".38"/>
</svg>
