<svg xmlns="http://www.w3.org/2000/svg" viewBox="0 0 900 1200" role="img" aria-label="Bebida fría">
  <defs>
    <linearGradient id="sky" x1="0" x2="0" y1="0" y2="1">
      <stop offset="0" stop-color="#fff3d8"/>
      <stop offset="1" stop-color="#f4c77d"/>
    </linearGradient>
    <linearGradient id="drink" x1="0" x2="0" y1="0" y2="1">
      <stop offset="0" stop-color="#ffdf80"/>
      <stop offset=".55" stop-color="#f48357"/>
      <stop offset="1" stop-color="#c9563a"/>
    </linearGradient>
    <linearGradient id="mint" x1="0" x2="1" y1="0" y2="1">
      <stop offset="0" stop-color="#b7dba4"/>
      <stop offset="1" stop-color="#6d7f5f"/>
    </linearGradient>
  </defs>
  <rect width="900" height="1200" fill="url(#sky)"/>
  <circle cx="735" cy="145" r="92" fill="#fff7df" opacity=".84"/>
  <path d="M0 820c150-66 282-42 430 14 166 63 316 62 470-6v372H0z" fill="#d9ab6b" opacity=".42"/>
  <path d="M225 282h450l-72 636c-12 103-78 162-153 162s-141-59-153-162z" fill="#fffaf2" opacity=".86"/>
  <path d="M283 398h334l-56 505c-8 71-53 111-111 111s-103-40-111-111z" fill="url(#drink)"/>
  <path d="M286 399h328l-12 112c-95 42-209 44-330 6z" fill="#fff7ec" opacity=".38"/>
  <path d="M324 275c44-50 88-74 132-72 50 2 88 34 120 96" fill="none" stroke="#6d7f5f" stroke-width="18" stroke-linecap="round"/>
  <path d="M582 193c-50 18-78 49-86 91 48 10 87-12 116-67 14-26 11-35-30-24z" fill="url(#mint)"/>
  <path d="M668 248 538 448" fill="none" stroke="#261f1a" stroke-width="12" stroke-linecap="round" opacity=".68"/>
  <circle cx="386" cy="590" r="20" fill="#fff7ec" opacity=".56"/>
  <circle cx="492" cy="704" r="23" fill="#fff7ec" opacity=".48"/>
  <circle cx="426" cy="812" r="17" fill="#fff7ec" opacity=".42"/>
  <path d="M254 282h392" fill="none" stroke="#261f1a" stroke-width="20" stroke-linecap="round" opacity=".72"/>
</svg>
